<?xml version="1.0" encoding="UTF-8" standalone="no"?>
<!-- Created with Inkscape (http://www.inkscape.org/) -->

<svg
   xmlns:dc="http://purl.org/dc/elements/1.1/"
   xmlns:cc="http://creativecommons.org/ns#"
   xmlns:rdf="http://www.w3.org/1999/02/22-rdf-syntax-ns#"
   xmlns:svg="http://www.w3.org/2000/svg"
   xmlns="http://www.w3.org/2000/svg"
   xmlns:sodipodi="http://sodipodi.sourceforge.net/DTD/sodipodi-0.dtd"
   xmlns:inkscape="http://www.inkscape.org/namespaces/inkscape"
   width="110.82635"
   height="32"
   viewBox="0 0 29.322806 8.4666667"
   version="1.1"
   id="svg1810"
   inkscape:version="0.92.4 (unknown)"
   sodipodi:docname="Athena_skull_v2_2_32x110_white_text.svg"
   inkscape:export-filename="/home/fellows/Documents/Personal/Graphics/Athena_skull_v2_64x64_white.png"
   inkscape:export-xdpi="96.000008"
   inkscape:export-ydpi="96.000008">
  <defs
     id="defs1804" />
  <sodipodi:namedview
     id="base"
     pagecolor="#ffffff"
     bordercolor="#666666"
     borderopacity="1.0"
     inkscape:pageopacity="0"
     inkscape:pageshadow="2"
     inkscape:zoom="4.3697855"
     inkscape:cx="47.128152"
     inkscape:cy="-4.2198904"
     inkscape:document-units="mm"
     inkscape:current-layer="layer1"
     showgrid="false"
     fit-margin-top="0"
     fit-margin-left="0"
     fit-margin-right="0"
     fit-margin-bottom="0"
     inkscape:pagecheckerboard="true"
     inkscape:window-width="1920"
     inkscape:window-height="1025"
     inkscape:window-x="0"
     inkscape:window-y="27"
     inkscape:window-maximized="1"
     units="px"
     showguides="false" />
  <metadata
     id="metadata1807">
    <rdf:RDF>
      <cc:Work
         rdf:about="">
        <dc:format>image/svg+xml</dc:format>
        <dc:type
           rdf:resource="http://purl.org/dc/dcmitype/StillImage" />
        <dc:title></dc:title>
      </cc:Work>
    </rdf:RDF>
  </metadata>
  <g
     inkscape:label="Layer 1"
     inkscape:groupmode="layer"
     id="layer1"
     transform="translate(-116.88914,-173.15611)">
    <g
       id="g1149"
       transform="matrix(0.90774631,0,0,0.86606358,12.136601,23.758907)">
      <g
         inkscape:export-ydpi="96"
         inkscape:export-xdpi="96"
         inkscape:export-filename="/home/fellows/Documents/Personal/Graphics/Athena_skull_v2_42x42_white.png"
         style="stroke:#ffffff"
         id="g1721"
         transform="matrix(0.06450793,0,0,0.06450793,116.94962,113.67659)">
        <path
           style="fill:none;stroke:#ffffff;stroke-width:1.34633839;stroke-miterlimit:4;stroke-dasharray:none;stroke-opacity:1"
           inkscape:connector-curvature="0"
           id="path2916"
           d="m 97.575068,1023.1059 c -0.119145,-0.034 -0.230295,-0.071 -0.284289,-0.1318 -0.188845,-0.2165 -0.120573,-0.694 -0.02596,-1.0447 0.236763,-0.8744 0.996605,-2.2936 1.754275,-2.9024 0.940585,0.2719 0.988486,1.5881 0.810117,2.3113 -0.116549,0.4723 -0.34165,0.9162 -0.629038,1.3203 -0.239198,0.3363 -0.763499,0.6919 -0.845065,1.0672 -0.125982,-0.1599 -0.262488,-0.3688 -0.433392,-0.4918 -0.08125,-0.057 -0.218142,-0.091 -0.346643,-0.1281 z" />
        <g
           style="fill:none;stroke:#ffffff;stroke-width:1.34633839;stroke-miterlimit:4;stroke-dasharray:none"
           id="g1981">
          <path
             d="m 97.844058,1021.5623 c -0.0118,-0.4833 0.13757,-0.9944 0.482752,-1.5538 0.535903,-0.8684 1.9783,-1.4185 2.18235,-0.075 0.10862,0.7185 -0.21632,1.4624 -0.517663,2.1106 -0.242992,0.525 -0.506605,1.3415 -1.094096,1.6005 -0.643688,-0.6768 -1.03543,-1.3467 -1.053343,-2.082 z"
             id="path2914"
             inkscape:connector-curvature="0"
             style="fill:none;stroke:#ffffff;stroke-width:1.34633839;stroke-miterlimit:4;stroke-dasharray:none;stroke-opacity:1" />
          <path
             d="m 97.431701,1019.962 c 0.284807,-0.2993 0.912478,-0.8344 1.328258,-0.6937 0.301564,0.102 0.593589,0.7116 0.614376,0.9897 0.04024,0.5399 -0.141308,1.0967 -0.270252,1.6188 -0.12629,0.5119 -0.308077,1.0706 -0.5969,1.539 -0.284335,0.4611 -0.384018,0.4957 -0.847787,0.1909 -0.851593,-0.5598 -1.100894,-1.2154 -0.916225,-2.1915 0.110884,-0.5839 0.279166,-1.022 0.68853,-1.4532 z"
             id="path2918"
             inkscape:connector-curvature="0"
             style="fill:none;stroke:#ffffff;stroke-width:1.34633839;stroke-miterlimit:4;stroke-dasharray:none;stroke-opacity:1" />
          <path
             d="m 96.846917,1019.2924 c 1.33881,0.1746 0.01568,5.2793 -1.421743,3.9729 -0.837348,-0.7604 -0.669066,-1.7633 -0.430199,-2.7077 0.156724,-0.6195 1.066792,-1.937 1.917095,-1.1913"
             id="path2920"
             inkscape:connector-curvature="0"
             style="fill:none;stroke:#ffffff;stroke-width:1.34633839;stroke-miterlimit:4;stroke-dasharray:none;stroke-opacity:1" />
          <path
             d="m 92.947158,1020.0235 c 0.182473,-1.0158 2.005329,-1.4143 2.355254,-0.3408 0.226184,0.6919 -0.07374,1.8224 -0.454918,2.4321 -0.168128,0.268 -0.888393,1.0079 -1.181614,1.1267 -0.405784,0.1645 -0.849368,-0.2317 -1.0878,-0.5834 -0.293364,-0.4325 -0.09724,-0.7842 0.07579,-1.2135 0.192313,-0.476 0.204231,-0.924 0.293292,-1.4211 z"
             id="path2922"
             inkscape:connector-curvature="0"
             style="fill:none;stroke:#ffffff;stroke-width:1.34633839;stroke-miterlimit:4;stroke-dasharray:none;stroke-opacity:1" />
          <path
             d="m 88.378668,1019.4705 c 0.391936,-0.9282 0.885242,-0.8154 1.742253,-0.6147 0.76323,0.1791 1.996192,-0.01 2.500426,0.6572 0.384622,0.5062 0.323053,1.2307 0.0998,1.788 -0.233491,0.5826 -0.410437,1.0635 -1.126722,1.1403 -0.71891,0.078 -1.228135,-0.4345 -1.802118,-0.5264 -0.733073,-0.1186 -1.05328,0.029 -1.625048,-0.5049 -0.68547,-0.6418 -0.0964,-1.2089 0.21141,-1.9395 z"
             id="path2924"
             inkscape:connector-curvature="0"
             style="fill:none;stroke:#ffffff;stroke-width:1.34633839;stroke-miterlimit:4;stroke-dasharray:none;stroke-opacity:1" />
          <path
             d="m 86.40133,1021.1632 c -0.566106,-0.1925 -1.143987,-0.4816 -1.657741,-0.5899 -0.586518,-0.1238 -1.322197,-0.3584 -1.332276,-1.0313 -0.0058,-0.3621 0.3346,-1.4858 0.700316,-1.7127 0.598381,-0.3697 1.412109,0.1396 2.048086,0.1941 0.710482,0.061 2.055553,0.2812 2.162991,1.1386 0.05436,0.4326 -0.196118,0.7539 -0.408591,1.1093 -0.194762,0.3249 -0.268142,0.7566 -0.488106,1.0711 -0.325012,0.023 -0.672395,-0.059 -1.024679,-0.1792 z"
             id="path2926"
             inkscape:connector-curvature="0"
             style="fill:none;stroke:#ffffff;stroke-width:1.34633839;stroke-miterlimit:4;stroke-dasharray:none;stroke-opacity:1" />
          <path
             d="m 83.158301,1019.5749 c -0.292747,0.3819 -0.753802,0.2505 -1.213218,0.025 -0.49545,-0.242 -1.08708,-0.4483 -1.553761,-0.6916 -0.94049,-0.4908 -0.937812,-1.9747 -0.08182,-2.5267 0.732485,-0.472 1.24354,0.2056 1.906363,0.3794 0.738297,0.194 1.282915,-0.1098 1.430573,0.7045 0.124101,0.6824 -0.04949,1.537 -0.488135,2.109 z"
             id="path2928"
             inkscape:connector-curvature="0"
             style="fill:none;stroke:#ffffff;stroke-width:1.34633839;stroke-miterlimit:4;stroke-dasharray:none;stroke-opacity:1" />
        </g>
        <path
           style="fill:none;stroke:#ffffff;stroke-width:0.71991724;stroke-miterlimit:4;stroke-dasharray:none;stroke-opacity:1"
           inkscape:connector-curvature="0"
           id="line3058_1_"
           d="M 91.034806,954.92828" />
        <path
           style="fill:none;stroke:#ffffff;stroke-width:0.71991724;stroke-miterlimit:4;stroke-dasharray:none;stroke-opacity:1"
           inkscape:connector-curvature="0"
           id="line3060_1_"
           d="M 89.410918,967.76676" />
        <path
           style="fill:none;stroke:#ffffff;stroke-width:1.34633839;stroke-miterlimit:4;stroke-dasharray:none;stroke-opacity:1"
           inkscape:connector-curvature="0"
           id="line3062_1_"
           d="M 84.431051,1002.0543" />
        <path
           style="fill:none;stroke:#ffffff;stroke-width:0.71991724;stroke-miterlimit:4;stroke-dasharray:none;stroke-opacity:1"
           inkscape:connector-curvature="0"
           id="line3064_1_"
           d="M 85.245317,996.2273" />
        <path
           style="fill:none;stroke:#ffffff;stroke-width:0.71991724;stroke-miterlimit:4;stroke-dasharray:none;stroke-opacity:1"
           inkscape:connector-curvature="0"
           id="line3068_1_"
           d="M 86.388132,990.35149" />
        <g
           style="fill:none;stroke:#ffffff;stroke-width:1.34633839;stroke-miterlimit:4;stroke-dasharray:none"
           id="g1972">
          <path
             d="m 100.48922,1011.6217 c -0.0817,-0.5648 -0.34583,-3.1528 0.93618,-2.5423 0.60428,0.2874 0.63024,2.26 0.56219,2.8232 -0.059,0.4874 -0.27812,0.9024 -0.33437,1.3874 -0.7019,-0.1402 -1.06344,-0.9786 -1.164,-1.6683 z"
             id="path2932"
             inkscape:connector-curvature="0"
             style="fill:none;stroke:#ffffff;stroke-width:1.34633839;stroke-miterlimit:4;stroke-dasharray:none;stroke-opacity:1" />
          <path
             d="m 101.9877,1010.0817 c 0.20542,0.9173 0.25037,2.4821 -0.33448,3.2083 -0.67947,-0.4918 -1.22725,-0.9571 -1.28798,-1.873 -0.0492,-0.7425 -0.370053,-1.8103 0.11061,-2.4806 0.81188,-1.1313 1.34518,0.4045 1.51185,1.1453 z"
             id="path2934"
             inkscape:connector-curvature="0"
             style="fill:none;stroke:#ffffff;stroke-width:1.34633839;stroke-miterlimit:4;stroke-dasharray:none;stroke-opacity:1" />
          <path
             d="m 100.07575,1010.6664 c 0.0432,0.9604 0.0654,2.6783 -1.083467,2.9468 -1.155072,0.2706 -1.510755,-2.0131 -1.548999,-2.8494 -0.01902,-0.4073 -0.07102,-0.872 0.101008,-1.246 0.311393,-0.6758 1.216738,-1.4913 1.876291,-0.9176 0.49194,0.4286 0.625777,1.4323 0.655167,2.0662 z"
             id="path2936"
             inkscape:connector-curvature="0"
             style="fill:none;stroke:#ffffff;stroke-width:1.34633839;stroke-miterlimit:4;stroke-dasharray:none;stroke-opacity:1" />
          <path
             d="m 95.059685,1010.0142 c 0.126826,-0.755 0.922397,-1.6284 1.7086,-1.3645 0.693024,0.2318 0.791699,1.302 0.902286,1.9138 0.08464,0.4719 0.239517,1.0429 0.162413,1.5404 -0.08365,0.5437 -0.490023,0.9755 -0.949977,1.2378 -0.494266,0.282 -0.859735,0.116 -1.289998,-0.2469 -0.871251,-0.7332 -0.714212,-2.002 -0.533324,-3.0806 z"
             id="path2938"
             inkscape:connector-curvature="0"
             style="fill:none;stroke:#ffffff;stroke-width:1.34633839;stroke-miterlimit:4;stroke-dasharray:none;stroke-opacity:1" />
          <path
             d="m 92.891237,1010.0496 c 0.300114,-0.9052 1.343276,-1.9151 1.988701,-0.6861 0.2285,0.4346 0.173599,1.0573 0.228233,1.5371 0.04234,0.3673 0.280709,2.2136 -0.490619,1.4941 -0.490492,0.8136 -1.193062,0.3377 -1.668427,-0.069 -0.748996,0.2472 -0.176207,-1.9191 -0.05789,-2.2761 z"
             id="path2940"
             inkscape:connector-curvature="0"
             style="fill:none;stroke:#ffffff;stroke-width:1.34633839;stroke-miterlimit:4;stroke-dasharray:none;stroke-opacity:1" />
          <path
             d="m 89.51628,1008.3675 c 0.4675,-0.7088 1.904694,-0.2027 2.450314,0.1173 0.79083,0.4629 0.591148,1.2475 0.66022,2.1084 0.04718,0.5858 0.02781,1.4233 -0.515628,1.6904 -0.662809,0.3262 -0.897238,-0.4183 -1.427015,-0.4993 -0.527516,-0.08 -0.993216,0.5237 -1.509324,0 -0.486099,-0.4893 -0.282807,-0.9519 -0.124937,-1.5168 0.152277,-0.5454 0.160876,-1.4423 0.46637,-1.9049 z"
             id="path2942"
             inkscape:connector-curvature="0"
             style="fill:none;stroke:#ffffff;stroke-width:1.34633839;stroke-miterlimit:4;stroke-dasharray:none;stroke-opacity:1" />
          <path
             d="m 89.18427,1009.1232 c -0.08397,0.504 -0.05169,1.5101 -0.35536,1.872 -0.298196,0.3556 -1.228799,0.343 -1.546664,0.1305 -0.19128,-0.1278 -0.2115,-0.4485 -0.425005,-0.5659 -0.260964,-0.1447 -0.531565,-0.028 -0.801933,-0.078 -1.250613,-0.2328 -0.431098,-2.741 0.08976,-3.5022 0.440661,-0.6451 0.931087,-0.1634 1.498171,0.1383 0.346657,0.1848 0.902794,0.1113 1.228308,0.3793 0.426596,0.3519 0.403003,1.09 0.312725,1.6262 z"
             id="path2944"
             inkscape:connector-curvature="0"
             style="fill:none;stroke:#ffffff;stroke-width:1.34633839;stroke-miterlimit:4;stroke-dasharray:none;stroke-opacity:1" />
          <path
             d="m 85.703582,1008.0021 c -0.134007,0.411 -0.302719,0.8168 -0.524293,1.1678 -0.636089,1.0055 -1.170211,0.4965 -1.859626,-0.1681 -0.504113,-0.4857 -1.552235,-0.436 -1.57248,-1.3947 -0.01102,-0.5124 0.365613,-0.6814 0.650479,-0.9932 0.311632,-0.3416 0.488857,-0.6514 0.544826,-1.1492 0.471673,-0.1024 0.948438,0.131 1.328676,0.3675 0.798126,0.4955 1.818574,0.9858 1.432418,2.1699 z"
             id="path2946"
             inkscape:connector-curvature="0"
             style="fill:none;stroke:#ffffff;stroke-width:1.34633839;stroke-miterlimit:4;stroke-dasharray:none;stroke-opacity:1" />
          <path
             d="M 83.130295,1008.2222"
             id="line3066_1_"
             inkscape:connector-curvature="0"
             style="fill:none;stroke:#ffffff;stroke-width:1.34633839;stroke-miterlimit:4;stroke-dasharray:none;stroke-opacity:1" />
          <path
             d="M 82.35254,1013.8421"
             id="line3070_1_"
             inkscape:connector-curvature="0"
             style="fill:none;stroke:#ffffff;stroke-width:1.34633839;stroke-miterlimit:4;stroke-dasharray:none;stroke-opacity:1" />
        </g>
        <path
           style="fill:none;stroke:#ffffff;stroke-width:0.71991724;stroke-miterlimit:4;stroke-dasharray:none;stroke-opacity:1"
           inkscape:connector-curvature="0"
           id="line3072_2_"
           d="M 87.979287,973.46606" />
        <path
           style="fill:none;stroke:#ffffff;stroke-width:0.71991724;stroke-miterlimit:4;stroke-dasharray:none;stroke-opacity:1"
           inkscape:connector-curvature="0"
           id="line3074_1_"
           d="M 90.378413,962.27983" />
        <circle
           style="fill:none;fill-opacity:0.90804593;fill-rule:nonzero;stroke:#ffffff;stroke-width:3.15427852;stroke-linecap:round;stroke-linejoin:round;stroke-miterlimit:4;stroke-dasharray:none;stroke-dashoffset:0;stroke-opacity:1;paint-order:stroke markers fill"
           id="path3770"
           cx="64.687508"
           cy="987.67468"
           r="64.687508" />
        <path
           style="fill:none;stroke:#ffffff;stroke-width:3.15427852;stroke-linecap:round;stroke-linejoin:round;stroke-miterlimit:4;stroke-dasharray:none;stroke-opacity:1"
           d="m 92.812507,937.98719 c 0,0 -15.925629,-6.50909 -24.320638,-7.07884 -12.855134,-0.87245 -24.835317,1.99523 -35.679367,8.95384 -8.420327,5.40331 -14.309609,14.47198 -18.750001,23.4375 -2.859261,5.77309 -3.900353,12.35592 -4.6875003,18.75 -1.6794971,10.19757 1.0840253,19.43331 4.6875003,28.12501 1.337041,3.2279 2.644606,6.5406 4.6875,9.375 2.584079,3.5852 5.697823,6.9235 9.375001,9.375 l 5.625001,3.75 c -2.690362,-4.7834 -4.571177,-7.4157 -4.838994,-9.8798 -0.267818,-2.464 1.077363,-4.7599 4.838994,-8.8702 0,0 7.76231,5.9227 8.4375,10.3125 0.255829,1.6633 -2.8125,3.75 -1.875,4.6875 0,0 16.875001,2.8125 23.509914,1.0598 1.938268,-0.5121 1.402112,-3.8615 1.331582,-5.8651 -0.170844,-4.853 -1.721823,-9.7784 -4.216494,-13.9447 -1.135171,-1.8958 -3.125001,-3.125 -4.687501,-4.6875 -1.5625,-1.5625 -4.333544,-2.5063 -4.6875,-4.6875 -0.559654,-3.44874 1.715448,-7.53817 4.6875,-9.375 1.329142,-0.82146 3.205183,-0.49411 4.687501,0 1.482317,0.49411 3.75,2.8125 3.75,2.8125 8.4375,-15.00001 14.764938,-21.60915 29.062502,-26.25001 1.819849,-0.54903 2.8125,-0.9375 6.096006,-2.11502 1.212837,-0.43495 0.466497,-1.63498 -1.182024,-3.22011 -1.214666,-1.16796 -3.038982,-4.03987 -3.038982,-4.03987 0,0 0.776955,-1.19492 0.9375,-1.875 0.215394,-0.91242 0.662914,-2.14959 0,-2.8125 -0.441942,-0.44194 -1.276818,-0.18111 -1.875,0 -1.078388,0.32651 -2.8125,1.875 -2.8125,1.875 l -3.75,-0.9375 1.875,-2.8125 -3.750001,0.9375 -1.875,-1.17188 c 0,0 0.289852,-3.08141 0.9375,-4.45312 1.708639,-3.61886 7.500001,-9.375 7.500001,-9.375 z"
           id="path3772"
           inkscape:connector-curvature="0"
           sodipodi:nodetypes="csssccsscscacsaaaaaaccsscaaacccccac" />
        <path
           style="fill:none;stroke:#ffffff;stroke-width:3.15427852;stroke-linecap:butt;stroke-linejoin:miter;stroke-miterlimit:4;stroke-dasharray:none;stroke-opacity:1"
           d="m 85.312506,946.42469 c 0,0 -13.734247,-4.7628 -20.788356,-4.24958 -10.186774,0.74114 -21.232833,3.57508 -28.815884,10.41737 -9.124533,8.2332 -15.396413,21.34452 -16.020765,33.20721 -0.9375,17.81251 11.250001,30.93751 11.250001,30.93751 l 2.812501,-2.8125 c 0,0 -9.819826,-17.20149 -9.484384,-26.61304 0.380352,-10.67159 4.8868,-22.24779 12.875212,-29.3339 8.796672,-7.80307 15.590524,-11.30328 29.648513,-11.41652 4.561878,-0.0367 13.835662,2.67595 13.835662,2.67595 z"
           id="path3774"
           inkscape:connector-curvature="0"
           sodipodi:nodetypes="caasccasscc" />
        <path
           style="fill:none;stroke:#ffffff;stroke-width:1.57713938;stroke-linecap:butt;stroke-linejoin:miter;stroke-miterlimit:4;stroke-dasharray:none;stroke-opacity:1"
           d="m 80.625006,942.67469 4.6875,-5.625"
           id="path3776"
           inkscape:connector-curvature="0" />
        <path
           style="fill:none;stroke:#ffffff;stroke-width:1.57713938;stroke-linecap:butt;stroke-linejoin:miter;stroke-miterlimit:4;stroke-dasharray:none;stroke-opacity:1"
           d="m 74.062506,940.79969 2.8125,-6.5625"
           id="path3778"
           inkscape:connector-curvature="0" />
        <path
           style="fill:none;stroke:#ffffff;stroke-width:1.57713938;stroke-linecap:butt;stroke-linejoin:miter;stroke-miterlimit:4;stroke-dasharray:none;stroke-opacity:1"
           d="m 65.625005,939.86219 0.9375,-6.5625"
           id="path3780"
           inkscape:connector-curvature="0" />
        <path
           style="fill:none;stroke:#ffffff;stroke-width:1.57713938;stroke-linecap:butt;stroke-linejoin:miter;stroke-miterlimit:4;stroke-dasharray:none;stroke-opacity:1"
           d="m 57.187504,939.86219 -2.8125,-5.625"
           id="path3782"
           inkscape:connector-curvature="0"
           sodipodi:nodetypes="cc" />
        <path
           style="fill:none;stroke:#ffffff;stroke-width:1.57713938;stroke-linecap:butt;stroke-linejoin:miter;stroke-miterlimit:4;stroke-dasharray:none;stroke-opacity:1"
           d="m 48.750004,941.73719 -3.750001,-4.6875"
           id="path3784"
           inkscape:connector-curvature="0"
           sodipodi:nodetypes="cc" />
        <path
           style="fill:none;stroke:#ffffff;stroke-width:1.57713938;stroke-linecap:butt;stroke-linejoin:miter;stroke-miterlimit:4;stroke-dasharray:none;stroke-opacity:1"
           d="m 41.250003,945.48719 -5.625,-3.75"
           id="path3786"
           inkscape:connector-curvature="0"
           sodipodi:nodetypes="cc" />
        <path
           style="fill:none;stroke:#ffffff;stroke-width:1.57713938;stroke-linecap:butt;stroke-linejoin:miter;stroke-miterlimit:4;stroke-dasharray:none;stroke-opacity:1"
           d="m 34.687503,950.17469 -6.562501,-2.8125"
           id="path3788"
           inkscape:connector-curvature="0"
           sodipodi:nodetypes="cc" />
        <path
           style="fill:none;stroke:#ffffff;stroke-width:1.57713938;stroke-linecap:butt;stroke-linejoin:miter;stroke-miterlimit:4;stroke-dasharray:none;stroke-opacity:1"
           d="m 28.125002,956.73719 -6.5625,-1.875"
           id="path3790"
           inkscape:connector-curvature="0" />
        <path
           style="fill:none;stroke:#ffffff;stroke-width:1.57713938;stroke-linecap:butt;stroke-linejoin:miter;stroke-miterlimit:4;stroke-dasharray:none;stroke-opacity:1"
           d="m 22.500002,965.17469 -6.562501,-0.9375"
           id="path3794"
           inkscape:connector-curvature="0"
           sodipodi:nodetypes="cc" />
        <path
           style="fill:none;stroke:#ffffff;stroke-width:1.57713938;stroke-linecap:butt;stroke-linejoin:miter;stroke-miterlimit:4;stroke-dasharray:none;stroke-opacity:1"
           d="m 19.687501,972.67469 -6.5625,0.9375"
           id="path3796"
           inkscape:connector-curvature="0" />
        <path
           style="fill:none;stroke:#ffffff;stroke-width:1.57713938;stroke-linecap:butt;stroke-linejoin:miter;stroke-miterlimit:4;stroke-dasharray:none;stroke-opacity:1"
           d="m 17.812501,981.11219 -6.5625,2.8125"
           id="path3798"
           inkscape:connector-curvature="0" />
        <path
           style="fill:none;stroke:#ffffff;stroke-width:1.57713938;stroke-linecap:butt;stroke-linejoin:miter;stroke-miterlimit:4;stroke-dasharray:none;stroke-opacity:1"
           d="m 17.812501,990.4872 -6.5625,3.75"
           id="path3800"
           inkscape:connector-curvature="0"
           sodipodi:nodetypes="cc" />
        <path
           style="fill:none;stroke:#ffffff;stroke-width:1.57713938;stroke-linecap:butt;stroke-linejoin:miter;stroke-miterlimit:4;stroke-dasharray:none;stroke-opacity:1"
           d="m 18.750001,999.8622 -4.6875,4.6875"
           id="path3802"
           inkscape:connector-curvature="0" />
        <path
           style="fill:none;stroke:#ffffff;stroke-width:1.57713938;stroke-linecap:butt;stroke-linejoin:miter;stroke-miterlimit:4;stroke-dasharray:none;stroke-opacity:1"
           d="m 21.562502,1008.2997 -2.812501,5.625"
           id="path3804"
           inkscape:connector-curvature="0" />
        <path
           style="fill:none;stroke:#ffffff;stroke-width:1.57713938;stroke-linecap:butt;stroke-linejoin:miter;stroke-miterlimit:4;stroke-dasharray:none;stroke-opacity:1"
           d="m 26.250002,1014.8622 -1.875,6.5625"
           id="path3808"
           inkscape:connector-curvature="0" />
        <path
           style="fill:none;stroke:#ffffff;stroke-width:0.78856963;stroke-linecap:butt;stroke-linejoin:miter;stroke-miterlimit:4;stroke-dasharray:none;stroke-opacity:1"
           d="m 60.937505,991.4247 14.062501,-19.68751 15.937501,-15 c 0,0 2.267682,-2.31839 3.75,-2.8125 0.592927,-0.19764 1.433058,-0.44194 1.875,0 0.662913,0.66291 0.215393,1.90008 0,2.8125 -0.160545,0.68008 -0.9375,1.875 -0.9375,1.875 0,0 1.940644,2.70491 2.760957,3.87678 0.820312,1.17188 1.926546,1.74823 1.926546,2.68572 0,0.9375 -1.699181,1.22575 -2.373191,1.43913 -4.103203,1.00018 -8.035492,2.26241 -11.656767,4.06055 m 0,0 c -2.120224,1.0574 -3.782546,2.00032 -3.782546,2.00032 -6.5625,4.6875 -9.244699,8.51922 -13.125001,14.06251 l -4.6875,7.5 -3.75,-2.8125"
           id="path3810"
           inkscape:connector-curvature="0"
           sodipodi:nodetypes="cccaaacssccccccc" />
        <path
           style="fill:none;stroke:#ffffff;stroke-width:1.57713938;stroke-linecap:butt;stroke-linejoin:miter;stroke-miterlimit:4;stroke-dasharray:none;stroke-opacity:1"
           d="m 30.000002,1005.4872 c -0.06991,2.3789 2.8125,6.5625 2.8125,6.5625 0,0 2.647231,-2.8728 2.812501,-4.6875 0.242168,-2.659 -2.812501,-7.5 -2.812501,-7.5 0,0 -2.750924,3.5296 -2.8125,5.625 z"
           id="path3812"
           inkscape:connector-curvature="0"
           sodipodi:nodetypes="acaca" />
        <path
           style="fill:none;stroke:#ffffff;stroke-width:1.57713938;stroke-linecap:butt;stroke-linejoin:miter;stroke-miterlimit:4;stroke-dasharray:none;stroke-opacity:1"
           d="m 37.500003,991.4247 c 0,0 -3.548187,4.05114 -3.75,6.5625 -0.213872,2.6614 2.8125,7.5 2.8125,7.5 0,0 2.622412,-4.1902 2.8125,-6.5625 0.205824,-2.56871 -1.875,-7.5 -1.875,-7.5"
           id="path3814"
           inkscape:connector-curvature="0"
           sodipodi:nodetypes="cacac" />
        <path
           style="fill:none;stroke:#ffffff;stroke-width:1.57713938;stroke-linecap:butt;stroke-linejoin:miter;stroke-miterlimit:4;stroke-dasharray:none;stroke-opacity:1"
           d="m 42.187503,982.98719 c 0,0 -3.55186,4.71195 -3.75,7.50001 -0.140106,1.97145 1.875,5.625 1.875,5.625 0,0 3.297649,-2.73832 3.75,-4.6875 0.651318,-2.80653 -1.875,-8.43751 -1.875,-8.43751 z"
           id="path3816"
           inkscape:connector-curvature="0"
           sodipodi:nodetypes="cacac" />
        <path
           style="fill:none;stroke:#ffffff;stroke-width:1.57713938;stroke-linecap:butt;stroke-linejoin:miter;stroke-miterlimit:4;stroke-dasharray:none;stroke-opacity:1"
           d="m 60.937505,963.29969 c 0,0 -2.98426,2.83884 -3.750001,4.6875 -1.082921,2.6144 -0.9375,8.4375 -0.9375,8.4375 0,0 3.867115,-4.00251 4.687501,-6.5625 0.667575,-2.08315 0,-6.5625 0,-6.5625 z"
           id="path3822"
           inkscape:connector-curvature="0"
           sodipodi:nodetypes="cacac" />
        <path
           style="fill:none;stroke:#ffffff;stroke-width:1.57713938;stroke-linecap:butt;stroke-linejoin:miter;stroke-miterlimit:4;stroke-dasharray:none;stroke-opacity:1"
           d="m 47.812504,976.42469 c 0,0 -2.476709,3.55575 -2.812501,5.625 -0.353956,2.18118 0.9375,6.5625 0.9375,6.5625 0,0 3.402441,-3.39849 3.750001,-5.625 0.350886,-2.24781 -1.875,-6.5625 -1.875,-6.5625 z"
           id="path3824"
           inkscape:connector-curvature="0"
           sodipodi:nodetypes="cacac" />
        <path
           style="fill:none;stroke:#ffffff;stroke-width:1.57713938;stroke-linecap:butt;stroke-linejoin:miter;stroke-miterlimit:4;stroke-dasharray:none;stroke-opacity:1"
           d="m 55.312504,969.86219 c 0,0 -3.841881,2.646 -4.6875,4.6875 -0.956709,2.3097 0,7.5 0,7.5 0,0 3.856623,-3.33008 4.6875,-5.625 0.74468,-2.05684 0,-6.5625 0,-6.5625 z"
           id="path3826"
           inkscape:connector-curvature="0"
           sodipodi:nodetypes="cacac" />
        <path
           style="fill:none;stroke:#ffffff;stroke-width:1.57713938;stroke-linecap:butt;stroke-linejoin:miter;stroke-miterlimit:4;stroke-dasharray:none;stroke-opacity:1"
           d="m 63.750005,962.36219 c -0.988212,1.97642 -0.9375,6.5625 -0.9375,6.5625 0,0 4.445655,-2.55064 5.625,-4.6875 1.14252,-2.07014 0.9375,-7.03125 0.9375,-7.03125 0,0 -4.439146,2.78454 -5.625,5.15625 z"
           id="path3828"
           inkscape:connector-curvature="0"
           sodipodi:nodetypes="acaca" />
        <path
           style="fill:none;stroke:#ffffff;stroke-width:1.57713938;stroke-linecap:butt;stroke-linejoin:miter;stroke-miterlimit:4;stroke-dasharray:none;stroke-opacity:1"
           d="m 75.937506,952.04969 c 0,0 -3.699289,2.71108 -4.687501,4.6875 -0.988212,1.97642 -0.9375,6.5625 -0.9375,6.5625 0,0 3.699289,-2.71108 4.687501,-4.6875 0.988212,-1.97642 0.9375,-6.5625 0.9375,-6.5625 z"
           id="path3830"
           inkscape:connector-curvature="0"
           sodipodi:nodetypes="cacac" />
        <path
           style="fill:none;stroke:#ffffff;stroke-width:1.57713938;stroke-linecap:butt;stroke-linejoin:miter;stroke-miterlimit:4;stroke-dasharray:none;stroke-opacity:1"
           d="m 85.312506,947.36219 c 0,0 -5.007897,1.76736 -6.5625,3.75 -1.403786,1.7903 -1.875,6.5625 -1.875,6.5625 0,0 4.183915,-2.01755 5.625,-3.75 1.521956,-1.82968 2.8125,-6.5625 2.8125,-6.5625 z"
           id="path3838"
           inkscape:connector-curvature="0"
           sodipodi:nodetypes="cacac" />
        <path
           style="fill:none;stroke:#ffffff;stroke-width:1.57713938;stroke-linecap:butt;stroke-linejoin:miter;stroke-miterlimit:4;stroke-dasharray:none;stroke-opacity:1"
           d="m 45.000003,1006.4247 c 0,0 -5.301411,-0.2929 -7.5,0.9375 -1.746141,0.9772 -3.75,4.6875 -3.75,4.6875 0,0 4.581523,0.9278 6.5625,0 2.210275,-1.0352 4.6875,-5.625 4.6875,-5.625 z"
           id="path3840"
           inkscape:connector-curvature="0"
           sodipodi:nodetypes="cacac" />
        <path
           style="fill:none;stroke:#ffffff;stroke-width:1.57713938;stroke-linecap:butt;stroke-linejoin:miter;stroke-miterlimit:4;stroke-dasharray:none;stroke-opacity:1"
           d="m 47.812504,998.9247 c 0,0 -4.693072,-0.24065 -6.562501,0.9375 -1.90645,1.2015 -3.75,5.625 -3.75,5.625 0,0 3.975964,0.01 5.625,-0.9375 2.117357,-1.214 4.687501,-5.625 4.687501,-5.625 z"
           id="path3842"
           inkscape:connector-curvature="0"
           sodipodi:nodetypes="cacac" />
        <path
           style="fill:none;stroke:#ffffff;stroke-width:1.57713938;stroke-linecap:butt;stroke-linejoin:miter;stroke-miterlimit:4;stroke-dasharray:none;stroke-opacity:1"
           d="m 51.562504,991.4247 c 0,0 -3.934815,0.0677 -5.625001,0.9375 -2.357762,1.21335 -5.625,5.625 -5.625,5.625 0,0 5.356824,0.38706 7.500001,-0.9375 1.916916,-1.18472 3.75,-5.625 3.75,-5.625"
           id="path3844"
           inkscape:connector-curvature="0"
           sodipodi:nodetypes="cacac" />
        <path
           style="fill:none;stroke:#ffffff;stroke-width:1.57713938;stroke-linecap:butt;stroke-linejoin:miter;stroke-miterlimit:4;stroke-dasharray:none;stroke-opacity:1"
           d="m 56.250004,984.86219 c 0,0 -4.632887,-0.13926 -6.5625,0.9375 -2.131328,1.18932 -4.687501,5.62501 -4.687501,5.62501 0,0 4.632888,0.13926 6.562501,-0.9375 2.131329,-1.18932 4.6875,-5.62501 4.6875,-5.62501 z"
           id="path3846"
           inkscape:connector-curvature="0"
           sodipodi:nodetypes="cacac" />
        <path
           style="fill:none;stroke:#ffffff;stroke-width:1.57713938;stroke-linecap:butt;stroke-linejoin:miter;stroke-miterlimit:4;stroke-dasharray:none;stroke-opacity:1"
           d="m 62.812505,977.36219 c 0,0 -4.541514,-0.83712 -6.562501,0 -2.449806,1.01474 -5.625,5.625 -5.625,5.625 0,0 4.541513,0.83712 6.5625,0 2.449806,-1.01474 5.625001,-5.625 5.625001,-5.625 z"
           id="path3848"
           inkscape:connector-curvature="0"
           sodipodi:nodetypes="cacac" />
        <path
           style="fill:none;stroke:#ffffff;stroke-width:1.57713938;stroke-linecap:butt;stroke-linejoin:miter;stroke-miterlimit:4;stroke-dasharray:none;stroke-opacity:1"
           d="m 69.375005,970.79969 c 0,0 -4.541513,-0.83712 -6.5625,0 -2.449806,1.01474 -5.625001,5.625 -5.625001,5.625 0,0 4.541514,0.83712 6.562501,0 2.449806,-1.01474 5.625,-5.625 5.625,-5.625 z"
           id="path3850"
           inkscape:connector-curvature="0"
           sodipodi:nodetypes="cacac" />
        <path
           style="fill:none;stroke:#ffffff;stroke-width:1.57713938;stroke-linecap:butt;stroke-linejoin:miter;stroke-miterlimit:4;stroke-dasharray:none;stroke-opacity:1"
           d="m 68.437505,965.17469 c -1.976424,0.98821 -4.6875,4.6875 -4.6875,4.6875 0,0 4.586076,0.0507 6.5625,-0.9375 1.976423,-0.98821 4.687501,-4.6875 4.687501,-4.6875 0,0 -4.586077,-0.0507 -6.562501,0.9375 z"
           id="path3852"
           inkscape:connector-curvature="0"
           sodipodi:nodetypes="acaca" />
        <path
           style="fill:none;stroke:#ffffff;stroke-width:1.57713938;stroke-linecap:butt;stroke-linejoin:miter;stroke-miterlimit:4;stroke-dasharray:none;stroke-opacity:1"
           d="m 75.937506,958.61219 c -1.922889,1.08872 -4.687501,4.6875 -4.687501,4.6875 0,0 4.541514,0.83712 6.562501,0 2.245655,-0.93018 5.15625,-5.15625 5.15625,-5.15625 0,0 -4.788796,-0.80091 -7.03125,0.46875 z"
           id="path3854"
           inkscape:connector-curvature="0"
           sodipodi:nodetypes="acaca" />
        <path
           style="fill:none;stroke:#ffffff;stroke-width:1.57713938;stroke-linecap:butt;stroke-linejoin:miter;stroke-miterlimit:4;stroke-dasharray:none;stroke-opacity:1"
           d="m 90.000007,952.04969 c 0,0 -4.497571,0.92009 -6.562501,1.875 -2.045356,0.94586 -5.625,3.75 -5.625,3.75 0,0 5.236735,0.16943 7.5,-0.9375 1.985015,-0.97084 4.687501,-4.6875 4.687501,-4.6875 z"
           id="path3856"
           inkscape:connector-curvature="0"
           sodipodi:nodetypes="cacac" />
        <path
           style="fill:none;stroke:#ffffff;stroke-width:0.78856963;stroke-linecap:round;stroke-linejoin:miter;stroke-miterlimit:4;stroke-dasharray:none;stroke-opacity:1"
           d="m 45.937503,1027.0497 c 0,0 4.246771,-0.5913 6.374366,-0.8543 2.448721,-0.3026 5.711453,1.0076 7.355083,-0.8326 1.249033,-1.3984 0.11086,-3.7533 0,-5.625 -0.132329,-2.2342 -0.704306,-4.431 -0.792582,-6.6673 -0.06277,-1.5903 0.9113,-3.3531 0.188134,-4.7708 -0.51198,-1.0037 -1.804717,-2.3789 -2.8125,-1.875 -1.875,0.9375 -2.929798,2.7938 -4.6875,3.75 -1.736135,0.9445 -5.625001,1.875 -5.625001,1.875"
           id="path3858"
           inkscape:connector-curvature="0"
           sodipodi:nodetypes="caaaaasac" />
        <path
           style="fill:none;stroke:#ffffff;stroke-width:0.78856963;stroke-linecap:round;stroke-linejoin:miter;stroke-miterlimit:4;stroke-dasharray:none;stroke-opacity:1"
           d="m 51.562504,1007.3622 c 0,0 0.90656,-0.9682 1.375423,-1.4371 0.468862,-0.4688 1.437077,-1.3754 1.437077,-1.3754"
           id="path3860"
           inkscape:connector-curvature="0"
           sodipodi:nodetypes="cac" />
        <path
           style="fill:none;stroke:#ffffff;stroke-width:1.57713938;stroke-linecap:butt;stroke-linejoin:miter;stroke-miterlimit:4;stroke-dasharray:none;stroke-opacity:1"
           d="m 94.550312,985.7997 0.9375,-4.68751 c 0,0 -3.442827,0.66475 -4.550305,1.875 -1.417519,1.54906 -2.174003,3.93538 -1.875,6.01373 0.160446,1.11525 1.875,2.81249 1.875,2.81249 h 4.550305 z"
           id="path1157"
           inkscape:connector-curvature="0"
           sodipodi:nodetypes="ccaaccc" />
        <path
           style="fill:none;stroke:#ffffff;stroke-width:2.01950788;stroke-linecap:butt;stroke-linejoin:miter;stroke-miterlimit:4;stroke-dasharray:none;stroke-opacity:1"
           d="m 65.62501,1018.6122 c 0.183738,-3.054 -0.602658,-3.1655 0.06166,-0.1049 0.494718,1.7742 1.411545,3.5279 2.750845,4.7924 1.52427,1.4391 3.67633,2.0397 5.625,2.8125 6.065621,2.4055 12.39045,4.7605 18.75,5.625 0.93048,0.1145 1.94637,0.3588 2.81251,0 1.224903,-0.5074 2.600126,-1.5038 2.8125,-2.8125 -1.8e-5,-0.9375 -0.937518,-0.9375 0,-2.8125 0.23234,-0.3759 0.98105,-0.4977 0.9375,-0.9375 -0.11103,-1.1213 -1.68577,-1.875 -2.8125,-1.875 -2.81251,0 -6.56251,-0.9375 -6.56251,-0.9375 0,0 -7.227322,-1.7852 -10.3125,-3.75 -1.118295,-0.7122 -2.507888,-1.5221 -2.8125,-2.8125 -0.454089,-1.9236 1.367715,-3.7148 1.875,-5.625 0.408986,-1.5401 1.24673,-3.1243 0.9375,-4.6875 -0.218659,-1.1053 -0.753749,-2.7015 -1.875,-2.8125 -0.879582,-0.087 -1.331047,1.1783 -1.875,1.875 -1.121387,1.4362 -1.085679,4.1058 -2.8125,4.6875 -1.594802,0.5373 -3.351782,-0.8513 -4.6875,-1.875 -1.240183,-0.9504 -2.672179,-2.1938 -2.8125,-3.75 -0.06275,-0.6959 1.116852,-1.1996 0.9375,-1.875 -0.289197,-1.089 -1.707646,-2.09597 -2.8125,-1.875 -1.104854,0.221 -1.638549,1.7109 -1.875,2.8125 -0.398906,1.8585 0.479293,3.7802 0.9375,5.625 0.23821,0.9591 0.559328,1.8995 0.9375,2.8125 0.534816,1.2912 1.553911,2.3898 1.875,3.75 0.287191,1.2166 0,2.5 0,3.75 z"
           id="path1159"
           inkscape:connector-curvature="0"
           sodipodi:nodetypes="ccaacaccascaaaaaaaaaaaaaaaac" />
        <path
           style="fill:none;stroke:#ffffff;stroke-width:2.01950788;stroke-linecap:butt;stroke-linejoin:miter;stroke-miterlimit:4;stroke-dasharray:none;stroke-opacity:1"
           d="m 66.562505,1001.7372 c -0.334204,-1.076 -1.707646,-2.09597 -2.8125,-1.875 -1.104854,0.221 -1.646655,1.7091 -1.875,2.8125 -0.354034,1.7107 0.9375,5.1563 0.9375,5.1563 l -4.687501,-1.4063 c 0,0 -4.257158,-1.9592 -5.625,-3.75 -0.599838,-0.7853 -1.068668,-1.833 -0.9375,-2.8125 0.448665,-3.3503 2.64476,-6.84252 5.625,-8.4375 1.102094,-0.58982 2.564147,-0.39528 3.750001,0 1.482318,0.49411 3.75,2.8125 3.75,2.8125 0,0 1.860836,-3.13359 2.8125,-4.6875 1.539712,-2.5141 2.797777,-5.23719 4.6875,-7.50001 2.977822,-3.56575 6.483171,-6.74474 10.312501,-9.375 2.17852,-1.49636 4.610578,-2.62978 7.083687,-3.56187 2.5517,-0.96171 7.916314,-2.06313 7.916314,-2.06313 l 1.40625,0.9375 c 0,0 2.343753,7.5 4.218753,11.25 0.625,1.25 -2.31694,2.42417 -1.875,3.75 0.9375,2.8125 0.9375,0.93751 1.875,3.75001 l 0.9375,1.875 c 0,0 -1.99464,0.59078 -2.51812,1.39497 -0.60113,0.92347 -0.29438,3.29253 -0.29438,3.29253 l -2.812503,2.8125 v 2.8125 c 0,0 2.508283,1.2814 3.750003,0.9375 0,2.8125 0.51333,0.9984 0,1.875 -0.23234,0.3759 -0.9375,0.9375 -0.9375,0.9375 0,0 1.35978,1.7845 1.68687,2.8341 0.27741,0.8902 0.81194,2.0979 0.18813,2.7909 -0.73022,0.8112 -2.18419,0.035 -3.272034,0.1233 -1.332062,0.1085 -2.642895,0.556 -3.97818,0.4996 -1.369156,-0.058 -2.69272,-0.5188 -4.021397,-0.8543 -1.887268,-0.4765 -3.71332,-1.1783 -5.603393,-1.6436 -1.547255,-0.3809 -3.197532,-1.5024 -4.6875,-0.9375 -1.303703,0.4942 -1.645585,0.8371 -1.895595,0.07 -0.666194,-2.0441 -1.050714,-3.2307 -1.834382,-3.0871 -0.934856,0.1714 -1.790185,2.1328 -3.055697,4.5107 -2.127915,3.9983 -2.369444,1.7139 -2.369444,1.7139 0,0 0.0014,-7.1958 -2.094887,-7.8946 -1.875,0.9375 -3.192879,4.4661 -4.6875,3.2812 -0.659381,-0.5227 1.187079,-1.5401 0.9375,-2.3437 z"
           id="path1165"
           inkscape:connector-curvature="0"
           sodipodi:nodetypes="caaccaaaacaaaaccscccaccccccaaaaaassssccaac" />
        <path
           style="fill:none;stroke:#ffffff;stroke-width:0.78856963;stroke-linecap:round;stroke-linejoin:miter;stroke-miterlimit:4;stroke-dasharray:none;stroke-opacity:1"
           d="m 83.141304,984.86219 c 0,0 0.662744,3.27252 0,4.68751 -1.035238,2.21028 -5.625001,4.6875 -5.625001,4.6875"
           id="path1288"
           inkscape:connector-curvature="0"
           sodipodi:nodetypes="cac" />
        <path
           style="fill:none;stroke:#ffffff;stroke-width:1.6829232;stroke-linecap:butt;stroke-linejoin:miter;stroke-miterlimit:4;stroke-dasharray:none;stroke-opacity:1"
           d="m 70.266038,1034.0763 c 0.253187,1.1223 0.416527,2.1488 0.193376,3.1907 -0.160013,0.7471 -0.346868,1.7656 -1.06357,2.0304 -1.781025,-0.9887 -3.867528,-1.547 -3.867528,-1.547 0,0 -1.06234,-2.4485 -1.353635,-4.1575 -0.208325,-1.2223 -1.914996,0.6809 -3.287399,1.7403 -0.564737,0.436 -1.31733,-0.6977 -2.030452,-0.6768 -2.081831,0.061 -2.749706,0.6309 -5.801291,2.3205 -0.801974,0.4441 -1.277502,-2.2492 -0.483442,-2.7072 3.048228,-1.7584 3.89327,-2.2428 6.671486,-3.5775 0.822706,-0.3953 2.030452,1.8371 2.030452,1.8371 0,0 1.965967,-1.3371 2.997334,-2.1271 0.667194,-0.5111 1.353636,2.1271 1.353636,2.1271 0,0 1.896968,-0.4959 2.292196,0.1602 0.492169,0.817 1.464164,0.9872 2.348837,1.3868 z"
           id="path1303"
           inkscape:connector-curvature="0"
           sodipodi:nodetypes="caccssassscsccc" />
        <path
           style="fill:none;stroke:#ffffff;stroke-width:1.6829232;stroke-linecap:butt;stroke-linejoin:miter;stroke-miterlimit:4;stroke-dasharray:none;stroke-opacity:1"
           d="m 69.328538,1037.8263 c 0.253187,1.1223 0.416528,2.1488 0.193376,3.1907 -0.160013,0.7471 -0.346868,1.7656 -1.06357,2.0304 -1.781024,-0.9887 -3.867528,-1.547 -3.867528,-1.547 0,0 -1.06234,-2.4485 -1.353635,-4.1575 -0.208325,-1.2223 -1.914996,0.6809 -3.287398,1.7403 -0.564737,0.436 -1.31733,-0.6977 -2.030452,-0.6768 -2.081831,0.061 -2.749706,0.6309 -5.801291,2.3205 -0.801974,0.4441 -1.277502,-2.2492 -0.483442,-2.7072 3.048228,-1.7584 3.89327,-2.2428 6.671486,-3.5775 0.822706,-0.3953 2.030452,1.8371 2.030452,1.8371 0,0 1.965966,-1.3371 2.997333,-2.1271 0.667195,-0.5111 1.353636,2.1271 1.353636,2.1271 0,0 1.896969,-0.4959 2.292196,0.1602 0.49217,0.817 1.464164,0.9872 2.348837,1.3868 z"
           id="path1303-7"
           inkscape:connector-curvature="0"
           sodipodi:nodetypes="caccssassscsccc" />
        <path
           style="fill:none;stroke:#ffffff;stroke-width:1.6829232;stroke-linecap:butt;stroke-linejoin:miter;stroke-miterlimit:4;stroke-dasharray:none;stroke-opacity:1"
           d="m 69.32854,1042.5138 c 0.25319,1.1223 0.41653,2.1488 0.19338,3.1907 -0.16002,0.7471 -0.34687,1.7656 -1.06357,2.0304 -1.78103,-0.9887 -3.86753,-1.547 -3.86753,-1.547 0,0 -1.06234,-2.4485 -1.35364,-4.1575 -0.20832,-1.2223 -1.914992,0.6809 -3.287394,1.7403 -0.564737,0.436 -1.31733,-0.6977 -2.030452,-0.6768 -2.081831,0.061 -2.749706,0.6309 -5.801291,2.3205 -0.801974,0.4441 -1.277502,-2.2492 -0.483442,-2.7072 3.048228,-1.7584 3.89327,-2.2428 6.671486,-3.5775 0.822706,-0.3953 2.030452,1.8371 2.030452,1.8371 0,0 1.965966,-1.3371 2.997331,-2.1271 0.6672,-0.5111 1.35364,2.1271 1.35364,2.1271 0,0 1.89697,-0.4959 2.29219,0.1602 0.49217,0.817 1.46417,0.9872 2.34884,1.3868 z"
           id="path1303-7-5"
           inkscape:connector-curvature="0"
           sodipodi:nodetypes="caccssassscsccc" />
        <path
           style="fill:none;stroke:#ffffff;stroke-width:1.6829232;stroke-linecap:butt;stroke-linejoin:miter;stroke-miterlimit:4;stroke-dasharray:none;stroke-opacity:1"
           d="m 66.562507,1026.8422 c 0,0 1.896969,-0.4959 2.292196,0.1602 0.49217,0.817 1.464164,0.9872 2.348837,1.3868 0.253187,1.1223 0.86551,2.3639 0.193376,3.1907 -0.226009,0.278 -0.346868,-0.1094 -1.06357,0.1554 -1.781024,-0.9887 -3.867528,-1.547 -3.867528,-1.547 0,0 -1.06234,-0.5735 -1.353635,-2.2825 z"
           id="path1303-3"
           inkscape:connector-curvature="0"
           sodipodi:nodetypes="cccacccc" />
      </g>
      <text
         xml:space="preserve"
         style="font-style:normal;font-variant:normal;font-weight:normal;font-stretch:normal;font-size:5.64444447px;line-height:1.25;font-family:'Libre Baskerville';-inkscape-font-specification:'Libre Baskerville';font-variant-ligatures:normal;font-variant-position:normal;font-variant-caps:normal;font-variant-numeric:normal;font-variant-alternates:normal;font-feature-settings:normal;text-indent:0;text-align:center;text-decoration:none;text-decoration-line:none;text-decoration-style:solid;text-decoration-color:#000000;letter-spacing:normal;word-spacing:normal;text-transform:none;writing-mode:lr-tb;direction:ltr;text-orientation:mixed;dominant-baseline:auto;baseline-shift:baseline;text-anchor:middle;white-space:normal;shape-padding:0;opacity:1;vector-effect:none;fill:#ffffff;fill-opacity:1;fill-rule:nonzero;stroke:none;stroke-width:0.66145831;stroke-linecap:round;stroke-linejoin:miter;stroke-miterlimit:4;stroke-dasharray:none;stroke-dashoffset:0;stroke-opacity:1;paint-order:stroke markers fill"
         x="136.8394"
         y="179.70366"
         id="text1155"><tspan
           sodipodi:role="line"
           x="136.8394"
           y="179.70366"
           id="tspan1153"
           style="stroke-width:0.66145831"><tspan
             x="136.8394"
             y="179.70366"
             id="tspan1151"
             style="stroke-width:0.66145831">Sidora</tspan></tspan></text>
    </g>
  </g>
</svg>
