<?xml version="1.0" encoding="UTF-8" standalone="no"?>
<!-- Created with Inkscape (http://www.inkscape.org/) -->

<svg
   width="140mm"
   height="140mm"
   viewBox="0 0 140 140"
   version="1.1"
   id="svg14456"
   inkscape:version="1.1.2 (1:1.1+202202050950+0a00cf5339)"
   sodipodi:docname="sidora_logo_final.svg"
   inkscape:export-filename="/home/jfellows/Documents/graphics/logos/sidora_logo_final.png"
   inkscape:export-xdpi="600"
   inkscape:export-ydpi="600"
   xmlns:inkscape="http://www.inkscape.org/namespaces/inkscape"
   xmlns:sodipodi="http://sodipodi.sourceforge.net/DTD/sodipodi-0.dtd"
   xmlns="http://www.w3.org/2000/svg"
   xmlns:svg="http://www.w3.org/2000/svg">
  <sodipodi:namedview
     id="namedview14458"
     pagecolor="#ffffff"
     bordercolor="#666666"
     borderopacity="1.0"
     inkscape:pageshadow="2"
     inkscape:pageopacity="0.0"
     inkscape:pagecheckerboard="0"
     inkscape:document-units="mm"
     showgrid="false"
     fit-margin-top="0"
     fit-margin-left="0"
     fit-margin-right="0"
     fit-margin-bottom="0"
     inkscape:zoom="0.7071068"
     inkscape:cx="61.518288"
     inkscape:cy="208.59649"
     inkscape:window-width="1920"
     inkscape:window-height="1016"
     inkscape:window-x="0"
     inkscape:window-y="27"
     inkscape:window-maximized="1"
     inkscape:current-layer="layer1"
     inkscape:snap-global="true"
     inkscape:snap-bbox="true"
     inkscape:bbox-nodes="true"
     width="140mm">
    <inkscape:grid
       type="xygrid"
       id="grid16209" />
  </sodipodi:namedview>
  <defs
     id="defs14453" />
  <g
     inkscape:label="Layer 1"
     inkscape:groupmode="layer"
     id="layer1"
     transform="translate(-151.11864,-102.14776)">
    <g
       id="g954"
       transform="translate(11.853125,2.1409999)">
      <path
         style="fill:#ffffff;fill-opacity:1;stroke:#007c78;stroke-width:1.20007;stroke-linecap:butt;stroke-linejoin:miter;stroke-miterlimit:4;stroke-dasharray:none;stroke-opacity:1"
         d="m 209.26552,102.86076 -57.54685,38.36918 v 57.55362 l 57.54685,38.3692 57.54684,-38.3692 v -57.55362 z"
         id="path11478"
         sodipodi:nodetypes="ccccccc" />
      <path
         style="fill:#007c78;fill-opacity:1;stroke:#007c78;stroke-width:0.661;stroke-linecap:butt;stroke-linejoin:miter;stroke-miterlimit:4;stroke-dasharray:none;stroke-opacity:1"
         d="m 174.41503,164.96027 3.96875,5.29167 h 59.53124 l 2.64584,-5.29167 z"
         id="path12866"
         sodipodi:nodetypes="ccccc" />
      <path
         style="fill:#ffffff;stroke:#007c78;stroke-width:0.661;stroke-linecap:butt;stroke-linejoin:miter;stroke-miterlimit:4;stroke-dasharray:none;stroke-opacity:1"
         d="m 173.09211,162.04987 v 2.64583 h 68.79166 v -2.64583 z"
         id="path2524"
         sodipodi:nodetypes="ccccc" />
      <path
         style="fill:#ffffff;stroke:#007c78;stroke-width:0.661;stroke-linecap:butt;stroke-linejoin:miter;stroke-miterlimit:4;stroke-dasharray:none;stroke-opacity:1"
         d="m 173.09211,162.04987 7.9375,-6.61458 h 52.91667 l 7.93749,6.61458 z"
         id="path2616"
         sodipodi:nodetypes="ccccc" />
      <g
         id="g126095"
         transform="matrix(-0.66120626,0,0,0.66120626,242.42913,-453.62017)"
         style="stroke-width:0.999688;stroke-miterlimit:4;stroke-dasharray:none">
        <path
           style="fill:#007c78;fill-opacity:1;stroke:none;stroke-width:0.999688;stroke-linecap:butt;stroke-linejoin:miter;stroke-miterlimit:4;stroke-dasharray:none;stroke-opacity:1"
           d="m 53.683314,930.65295 c -0.54131,-2.03834 -1.193686,-4.05384 -2.000762,-6.0023 -1.141375,-2.75552 -3.316273,-5.10027 -4.001525,-8.00304 -0.306455,-1.29816 0.51044,-2.76922 0,-4.00153 -0.360935,-0.87137 -1.129389,-1.63983 -2.000763,-2.00076 -0.616154,-0.25522 -1.459728,-0.38996 -2.000762,0 -1.710901,1.23315 -2.000763,4.40168 -2.000763,6.40244 0,2.00077 1.126914,2.44721 1.875427,3.73703 1.206942,2.07978 3.864961,6.16903 3.864961,6.16903 l 4.547635,16.55659 1.78729,-1.24489 2.327086,-0.0525 c 0,0 -1.52499,-8.27336 -2.397824,-11.56008 z"
           id="path19474"
           sodipodi:nodetypes="sssssszsccccs" />
        <path
           style="fill:#ffffff;fill-opacity:1;stroke:#007c78;stroke-width:0.999688;stroke-linecap:butt;stroke-linejoin:miter;stroke-miterlimit:4;stroke-dasharray:none;stroke-opacity:1"
           d="m 43.342362,911.00189 c 0.400154,-0.53354 1.721748,-0.61179 2.337902,-0.35657 0.871374,0.36093 2.000763,2.00076 2.000763,2.00076 l 2.000762,2.00076 2.000763,4.00153 c 0,0 0.213657,-2.6849 -1e-6,-4.00152 -0.337823,-2.08176 -0.892,-4.20828 -2.000762,-6.00229 -0.495853,-0.80231 -1.12939,-1.63982 -2.000763,-2.00076 -1.232308,-0.51044 -2.769215,-0.51045 -4.001524,-1e-5 -0.871376,0.36094 -1.504909,1.19846 -2.000762,2.00077 -1.10876,1.79401 -2.000764,3.8933 -2.000763,6.00229 1e-6,2.10899 0.215326,2.94344 1.0224,4.89189 0.570689,1.37776 2.107157,3.90213 2.979125,5.11192 0.55148,0.76514 1.833016,3.12855 2.384496,3.89369 0.871968,1.20979 0.967466,2.89805 1.451441,4.30861 1.103631,3.21658 2.283242,10.45877 2.283242,10.45877 l 2.168081,0.19868 c 0,0 -2.247825,-12.45213 -4.285736,-16.85899 -1.009297,-2.18255 -2.794582,-3.92251 -4.001524,-6.00229 -0.748513,-1.28982 -1.73685,-1.69009 -1.860156,-3.11671 -0.187066,-2.1643 0.322558,-4.92992 1.523016,-6.53053 z"
           id="path19604"
           sodipodi:nodetypes="sscccssssssssssccssss" />
      </g>
      <g
         id="g16950"
         style="fill:#ffffff;stroke-width:0.999688;stroke-miterlimit:4;stroke-dasharray:none"
         transform="matrix(0.66120626,0,0,0.66120626,164.0547,-471.55994)">
        <path
           style="fill:#ffffff;stroke:#007c78;stroke-width:0.999688;stroke-linecap:butt;stroke-linejoin:miter;stroke-miterlimit:4;stroke-dasharray:none;stroke-opacity:1"
           d="m 17.66959,974.66972 v 34.01298 h 96.0366 v -34.01298 z"
           id="path2284"
           sodipodi:nodetypes="ccccc" />
        <path
           style="fill:#ffffff;stroke:#007c78;stroke-width:0.999688;stroke-linecap:butt;stroke-linejoin:miter;stroke-miterlimit:4;stroke-dasharray:none;stroke-opacity:1"
           d="M 15.668828,1008.6827 H 115.70695 v 4.4017 H 15.668828 v -4.4017"
           id="path2338"
           sodipodi:nodetypes="ccccc" />
        <path
           style="fill:#ffffff;stroke:#007c78;stroke-width:0.999688;stroke-linecap:butt;stroke-linejoin:miter;stroke-miterlimit:4;stroke-dasharray:none;stroke-opacity:1"
           d="m 13.668065,1013.0843 v 4.0016 H 117.70771 v -4.0016 z"
           id="path2430"
           sodipodi:nodetypes="ccccc" />
        <path
           style="fill:#ffffff;stroke:#007c78;stroke-width:0.999688;stroke-linecap:butt;stroke-linejoin:miter;stroke-miterlimit:4;stroke-dasharray:none;stroke-opacity:1"
           d="M 17.66959,974.66972 H 15.668828 V 970.6682 H 115.70695 v 4.00152 H 17.66959"
           id="path2522"
           sodipodi:nodetypes="cccccc" />
      </g>
      <g
         id="g73727"
         transform="matrix(0.66120626,0,0,0.66120626,161.40887,-451.71619)"
         style="stroke-width:0.999688;stroke-miterlimit:4;stroke-dasharray:none">
        <path
           style="fill:#007c78;fill-opacity:1;stroke:none;stroke-width:0.999688;stroke-linecap:butt;stroke-linejoin:miter;stroke-miterlimit:4;stroke-dasharray:none;stroke-opacity:1"
           d="m 43.679503,938.65599 c 0,0 -2.000763,-6.11051 -2.000763,-4.00152 0,4.00153 -2.000763,6.00228 -2.000763,6.00228 0,0 -1.128797,2.79174 -2.000763,4.00153 -0.55148,0.76514 -1.402803,1.27138 -2.000762,2.00077 -1.524498,1.85959 -1.600609,2.00076 -1.600609,2.00076 -1.159326,0.92501 -1.405028,1.18991 -2.400915,1.60061 l 2.000762,-7.6029 c 0,0 3.255036,-5.51353 3.797487,-7.59497 0.542451,-2.08143 -0.169546,-2.97612 0.204038,-4.4096 0.373585,-1.43348 0.799168,-3.2589 2.000763,-4.00153 1.201596,-0.74263 3.026904,0.47576 4.401678,0.8003 1.374774,0.32454 1.200457,-0.40015 2.801067,2.00077 1.60061,2.40091 2.000762,11.20427 2.000762,11.20427 z"
           id="path19140"
           sodipodi:nodetypes="cscssccczzzzzcc" />
        <path
           style="fill:#ffffff;fill-opacity:1;stroke:#007c78;stroke-width:0.999688;stroke-linecap:butt;stroke-linejoin:miter;stroke-miterlimit:4;stroke-dasharray:none;stroke-opacity:1"
           d="m 25.67264,954.66209 c 0,0 4.52117,-3.16491 6.380317,-5.17566 1.984624,-2.14646 3.764088,-4.56161 4.975222,-7.22228 1.027864,-2.25806 1.660454,-4.73575 1.849494,-7.20953 0.06325,-0.82762 -0.230078,-1.10495 -0.245079,-2.47801 -0.015,-1.37307 0.185075,-3.01425 1.045382,-4.08673 0.933133,-1.16326 2.635569,-1.53632 4.107594,-1.29744 1.861981,0.30216 2.645975,0.96067 3.509128,2.63794 1.856279,3.6071 2.387092,10.42622 2.387092,10.42622 0,0 1.673529,-0.017 1.673529,-0.6839 0,-4.00152 -0.07762,-7.1909 -1.67353,-10.92052 -1.311827,-3.06573 -3.019727,-6.51177 -6.002288,-8.00305 -1.789536,-0.89477 -4.300337,-1.05186 -6.002287,0 -1.268558,0.78401 -1.430075,2.62376 -2.000763,4.00152 -0.807076,1.94845 -1.66294,3.92053 -2.000762,6.00229 -0.320487,1.97493 0.24446,4.01652 0,6.00229 -0.335978,2.72918 -0.948466,5.46258 -2.000763,8.00305 -1.488173,3.59277 -6.002286,10.00381 -6.002286,10.00381 z"
           id="path19144"
           sodipodi:nodetypes="cssssssscssssssssc" />
      </g>
      <g
         id="g112344"
         style="stroke-width:0.999688;stroke-miterlimit:4;stroke-dasharray:none"
         transform="matrix(0.66120626,0,0,0.66120626,164.0547,-476.85161)">
        <g
           id="g113283"
           transform="translate(24.009149,38.014487)"
           style="stroke-width:0.999688;stroke-miterlimit:4;stroke-dasharray:none">
          <path
             style="fill:#007c78;fill-opacity:1;stroke:none;stroke-width:0.999688;stroke-linecap:butt;stroke-linejoin:miter;stroke-miterlimit:4;stroke-dasharray:none;stroke-opacity:1"
             d="m 53.683314,938.65599 2.000763,-4.00152 h 4.001525 l 4.001524,2.00076 2.000763,6.00229 4.001525,8.00305 2.000762,6.00228 8.00305,6.00229 c 0,0 -5.894061,-1.89253 -8.00305,-4.00152 -2.108989,-2.10899 -2.504498,-5.4234 -4.001525,-8.00305 -1.206942,-2.07978 -2.945053,-3.84218 -4.001525,-6.00229 -0.926587,-1.89454 -2.0749,-6.28334 -2.000762,-6.00229 0.24057,0.91197 -2.000762,2.00076 -2.000762,2.00076 h -6.002288 z"
             id="path19274"
             sodipodi:nodetypes="ccccccccssssccc" />
          <path
             style="fill:#ffffff;fill-opacity:1;stroke:#007c78;stroke-width:0.999688;stroke-linecap:butt;stroke-linejoin:miter;stroke-miterlimit:4;stroke-dasharray:none;stroke-opacity:1"
             d="m 79.693226,962.66514 -8.00305,-6.00229 c 0,0 -4.197268,-9.25777 -6.002287,-14.00533 -0.749494,-1.97132 -0.618949,-4.40905 -2.000763,-6.00229 -0.977089,-1.12659 -2.550138,-1.65813 -4.001524,-2.00076 -0.64908,-0.15323 -1.433446,-0.35062 -2.000763,0 -1.268558,0.78401 -2.31438,4.58575 -2.31438,4.58575 l -3.720651,0.72618 c 0,0 2.323368,-6.07955 4.034269,-7.3127 1.623103,-1.16987 4.087374,-0.57979 6.002287,0 2.301441,0.69682 4.5427,2.09056 6.002287,4.00153 2.560284,3.35205 2.667684,8.00305 4.001525,12.00457 0.666921,2.00076 0.892002,4.20828 2.000763,6.00229 0.991706,1.60462 2.898564,2.47125 4.001525,4.00153 0.871966,1.20979 2.000762,4.00152 2.000762,4.00152 z"
             id="path19276"
             sodipodi:nodetypes="ccssssccssssssc" />
        </g>
      </g>
      <g
         id="g53934"
         transform="matrix(0.66120626,0,0,0.66120626,153.47137,-453.03911)"
         style="fill:#ffffff;stroke:#007c78;stroke-width:0.999688;stroke-miterlimit:4;stroke-dasharray:none;stroke-opacity:1">
        <path
           style="fill:#ffffff;fill-opacity:1;stroke:#007c78;stroke-width:0.999688;stroke-linecap:butt;stroke-linejoin:miter;stroke-miterlimit:4;stroke-dasharray:none;stroke-opacity:1"
           d="m 29.918988,936.57469 c -1.742747,0.72187 -2.245586,2.0813 -2.245586,2.0813 -1.712448,2.15147 -1.664784,5.27387 -2.000762,8.00305 -0.325946,2.6477 0.134104,7.19642 0,8.00305 -0.104425,0.62811 -2.471248,2.89857 -4.001525,4.00153 -1.209789,0.87197 -2.791735,1.12879 -4.001525,2.00076 -1.530276,1.10296 -5.104484,2.47124 -4.001525,4.00152 0.871966,1.20979 4.001525,-2.00076 4.001525,-2.00076 l 6.002287,-2.00076 2.000763,-2.00076 c 0,0 3.193739,-2.2969 4.001525,-4.00153 0.57404,-1.21137 0.400153,-4.00153 0.400153,-4.00153 0,0 0.400153,-5.60213 2.400914,-8.80335 0.919015,-1.47042 5.201983,0 5.201983,0 0,0 0.03103,-2.33071 -0.981329,-3.88848 -0.513945,-0.79084 -2.21989,-1.3135 -3.106102,-1.57052 -2.240925,-0.64992 -3.054641,-0.0787 -3.670796,0.17648 z"
           id="path42049"
           sodipodi:nodetypes="ssssssscccscscsss" />
        <path
           style="fill:#007c78;fill-opacity:1;stroke:#007c78;stroke-width:0.999688;stroke-linecap:butt;stroke-linejoin:miter;stroke-miterlimit:4;stroke-dasharray:none;stroke-opacity:1"
           d="m 30.074318,954.66209 c 0,0 -3.889522,4.50467 -6.402441,6.00229 -1.811656,1.07969 -4.33918,1.31188 -6.002287,2.00076 -1.663107,0.68888 -4.001525,2.00076 -4.001525,2.00076 0,0 3.201221,-0.40015 4.401678,-0.8003 1.200457,-0.40016 4.001525,-0.80031 5.201982,-1.60061 1.200458,-0.80031 1.413451,-0.88889 2.400915,-1.60061 0.987464,-0.71173 1.413452,-1.68919 2.400916,-2.40092 0.987464,-0.71172 2.49299,-1.65715 2.801067,-2.40091 0.308077,-0.74376 1.048231,-8.15328 0.800305,-9.20351 -0.247927,-1.05023 -1.363571,2.19636 -1.581813,4.18519 l -0.418949,3.81786"
           id="path44904"
           sodipodi:nodetypes="cazczzzzzzsc" />
      </g>
      <g
         id="g82332"
         transform="matrix(0.66120626,0,0,0.66120626,179.9297,-478.17453)"
         style="stroke-width:0.999688;stroke-miterlimit:4;stroke-dasharray:none">
        <g
           id="g98536"
           transform="translate(6.002289,30.011441)"
           style="stroke-width:0.999688;stroke-miterlimit:4;stroke-dasharray:none">
          <path
             style="fill:#007c78;fill-opacity:1;stroke:none;stroke-width:0.999688;stroke-linecap:butt;stroke-linejoin:miter;stroke-miterlimit:4;stroke-dasharray:none;stroke-opacity:1"
             d="m 71.690174,950.66057 2.000764,-4.00153 h 6.002287 l 6.002288,4.00153 6.002287,12.00457 -4.001525,-4.00152 -4.001525,-6.00229 -2.000762,-2.00076 h -4.001525 -2.000764 -2.000762 z"
             id="path45134"
             sodipodi:nodetypes="cccccccccccc" />
          <path
             style="fill:#ffffff;fill-opacity:1;stroke:#007c78;stroke-width:0.999688;stroke-linecap:butt;stroke-linejoin:miter;stroke-miterlimit:4;stroke-dasharray:none;stroke-opacity:1"
             d="m 69.689412,950.66057 c 0,0 2.258778,-7.28118 4.001525,-8.00305 1.232309,-0.51044 2.740354,-0.88766 4.074196,-0.88766 1.333842,0 4.413261,0.87997 5.729879,1.09363 2.081756,0.33782 4.201262,1.79479 4.201262,1.79479 2.000763,2.00076 2.764208,3.04764 3.512722,4.33746 1.206941,2.07978 1.282624,3.58657 2.489565,5.66635 1.497028,2.57965 1.690985,4.28768 3.944171,6.24186 1.593244,1.38181 4.111188,2.95488 6.059638,3.76196 1.37777,0.57069 5.56631,6.12886 5.56631,7.62014 0,1.49128 -4.07878,-3.72434 -5.56631,-3.61862 -2.10368,0.1495 -4.107747,-1.07417 -6.002284,-2.00076 -2.160105,-1.05647 -4.410905,-2.19884 -6.002287,-4.00153 -2.960798,-3.35394 -6.002287,-12.00457 -6.002287,-12.00457 0,0 -3.009605,-3.19801 -5.311046,-3.89483 -1.914913,-0.57979 -4.692766,-2.10746 -6.002287,0 -1.055964,1.69941 -0.691242,3.89482 -0.691242,3.89482 z"
             id="path45300"
             sodipodi:nodetypes="csssssssssssscsscc" />
        </g>
      </g>
      <text
         xml:space="preserve"
         style="font-size:19.7556px;line-height:1.25;font-family:Commissioner;-inkscape-font-specification:Commissioner;letter-spacing:0px;fill:#007c78;fill-opacity:1;stroke-width:0.264584"
         x="174.63399"
         y="150.90913"
         id="text1411"><tspan
           sodipodi:role="line"
           id="tspan1409"
           style="font-style:normal;font-variant:normal;font-weight:normal;font-stretch:normal;font-size:19.7556px;font-family:'EB Garamond';-inkscape-font-specification:'EB Garamond';fill:#007c78;fill-opacity:1;stroke-width:0.264584"
           x="174.63399"
           y="150.90913">SIDORA</tspan></text>
      <path
         style="fill:#ffffff;fill-opacity:1;stroke:none;stroke-width:0.264583px;stroke-linecap:butt;stroke-linejoin:miter;stroke-opacity:1"
         d="m 208.95106,149.49031 -0.30679,1.33634 0.58287,0.29924 0.95316,-1.04675 z"
         id="path59787"
         sodipodi:nodetypes="ccccc" />
      <g
         id="g72926"
         transform="translate(-1.0068841,0.13329983)">
        <g
           id="g68056"
           transform="matrix(1.1667215,0,0,1.1667215,-33.315722,-63.698792)">
          <path
             style="fill:none;stroke:#007c78;stroke-width:0.661;stroke-linecap:butt;stroke-linejoin:miter;stroke-miterlimit:4;stroke-dasharray:none;stroke-opacity:1"
             d="m 206.51583,205.71157 c 0.57675,0 1.16096,-0.0924 1.73026,0 0.6001,0.0974 1.16859,0.3441 1.73026,0.57675 0.39717,0.16451 0.80477,0.32539 1.15351,0.57675 0.22056,0.15898 0.40438,0.3665 0.57675,0.57676 0.43947,0.53606 0.95264,1.06683 1.15351,1.73026 0.22285,0.73601 0,1.53801 0,2.30701 v 1.73027 c 0,0.3845 0.0727,0.77594 0,1.15351 -0.0392,0.20332 -0.1538,0.3845 -0.2307,0.57675 -0.0769,0.19225 -0.18146,0.37563 -0.2307,0.57675 -0.0919,0.37534 -0.11535,1.15351 -0.11535,1.15351 l -0.69211,1.03816 -0.34605,-0.2307 -0.40373,-0.11536 h -0.28837 -0.23071 l -0.34605,0.34606 v 0.6921 c 0,0 -0.16528,-0.0404 -0.2307,0 -0.0731,0.0452 -0.0422,0.1855 -0.11535,0.2307 -0.0654,0.0404 -0.2307,0 -0.2307,0 0,0 -0.061,0.11535 -0.11535,0.11535 -0.10876,0 -0.12486,-0.20571 -0.2307,-0.2307 -0.11834,-0.0279 -0.15991,-0.21947 -0.25653,-0.14572 -0.11018,0.0841 -0.23071,0.34606 -0.23071,0.34606 0,0 -0.12002,0.0441 -0.20487,0.0304 -0.10735,-0.0174 -0.3243,-0.0304 -0.3243,-0.0304 0,0 -0.15029,-0.20034 -0.3678,-0.20034 -0.16313,0 -0.34605,0.34606 -0.34605,0.34606 0,0 -0.30382,-0.13266 -0.46141,-0.11536 -0.0855,0.009 -0.2307,0.11536 -0.2307,0.11536 0,0 -0.28978,-0.24139 -0.4614,-0.23071 -0.13837,0.009 -0.2493,0.085 -0.2493,0.085 0,0 -0.13896,-0.0398 -0.21211,-0.085 -0.0654,-0.0404 -0.15437,-0.009 -0.2307,0 -0.15735,0.0194 -0.4614,0.11535 -0.4614,0.11535 l -0.4614,-0.11535 -0.11536,-0.4614 v -0.57675 l -0.57675,-0.34606 -0.4614,-0.11535 -0.2307,0.2307 -0.46141,0.11536 -0.34605,-0.57676 c 0,0 -0.47898,-0.97301 -0.57675,-1.49956 -0.0421,-0.22682 0.006,-0.46149 0,-0.6921 -0.0192,-0.69291 -0.039,-1.38736 -0.11535,-2.07632 -0.0258,-0.23246 -0.10664,-0.45838 -0.11535,-0.6921 -0.0316,-0.84881 0.0266,-1.71322 0.2307,-2.53772 0.12014,-0.4852 0.3077,-0.96294 0.57675,-1.38421 0.33691,-0.52752 0.77415,-1.00074 1.26886,-1.38421 0.51662,-0.40046 1.09612,-0.76427 1.73026,-0.9228 0.37302,-0.0933 0.76901,0 1.15351,0 z"
             id="path60686"
             sodipodi:nodetypes="sssssssssssccccccccsscssscscscscscsscccccccccsssssssss" />
          <path
             style="fill:#007c78;fill-opacity:1;stroke:none;stroke-width:0.115351px;stroke-linecap:butt;stroke-linejoin:miter;stroke-opacity:1"
             d="m 204.85404,212.21051 c -0.4235,0.0738 -1.23185,0.0388 -1.56803,0.30675 -0.22901,0.1825 -0.31104,0.51673 -0.34605,0.80746 -0.0559,0.46441 -0.0233,0.9914 0.2307,1.38421 0.22582,0.34925 0.62836,0.62112 1.03816,0.6921 0.46862,0.0812 0.99107,-0.0784 1.3842,-0.34605 0.27341,-0.18615 0.47582,-0.49247 0.57676,-0.80746 0.14081,-0.43939 0.20634,-0.97152 0,-1.38421 -0.17196,-0.3439 -0.54925,-0.60101 -0.92281,-0.6921 -0.22723,-0.0554 -0.16251,-8.7e-4 -0.39293,0.0393 z"
             id="path61218"
             sodipodi:nodetypes="ssssssssss" />
          <path
             style="fill:#007c78;fill-opacity:1;stroke:none;stroke-width:0.115351px;stroke-linecap:butt;stroke-linejoin:miter;stroke-opacity:1"
             d="m 209.51495,212.28656 c -0.2307,0.11535 -0.64347,0.37782 -0.80745,0.69211 -0.17876,0.34258 -0.11536,1.03815 -0.11536,1.1535 0,0.11535 -0.0116,0.4274 0.11536,0.57676 0.21282,0.25026 0.60914,0.24838 0.9228,0.34605 0.30273,0.0943 0.60871,0.27403 0.92281,0.2307 0.30708,-0.0424 0.61092,-0.22167 0.80745,-0.4614 0.23126,-0.28209 0.28762,-0.6781 0.34605,-1.03816 0.0431,-0.26568 0.1415,-0.5785 0,-0.80745 -0.226,-0.36569 -0.769,-0.49773 -1.1535,-0.68998 -0.15381,-0.0769 -0.34606,-0.11748 -0.4614,-0.11748 -0.11536,0 -0.25969,-0.0432 -0.57676,0.11535 z"
             id="path61220"
             sodipodi:nodetypes="ssssssssssss" />
          <path
             style="fill:#007c78;fill-opacity:1;stroke:none;stroke-width:0.115351px;stroke-linecap:butt;stroke-linejoin:miter;stroke-opacity:1"
             d="m 206.63118,215.51638 c -0.17023,0.25908 -0.3527,0.51714 -0.4614,0.80746 -0.0687,0.18361 -0.18061,0.39187 -0.11535,0.57675 0.1,0.28318 0.39269,0.55361 0.6921,0.57676 0.22354,0.0173 0.57676,-0.34606 0.57676,-0.34606 0,0 0.29167,0.25825 0.4614,0.2307 0.37572,-0.061 0.74648,-0.43173 0.80745,-0.80745 0.0551,-0.33947 -0.28878,-0.62536 -0.4614,-0.92281 -0.13917,-0.23981 -0.28562,-0.47768 -0.4614,-0.6921 -0.10342,-0.12616 -0.34605,-0.34606 -0.34605,-0.34606 0,0 -0.48097,0.60147 -0.69211,0.92281 z"
             id="path61222"
             sodipodi:nodetypes="sssscsssscs" />
          <path
             style="fill:#007c78;fill-opacity:1;stroke:none;stroke-width:0.264583px;stroke-linecap:butt;stroke-linejoin:miter;stroke-opacity:1"
             d="m 202.48089,209.45542 c 0,0 -0.0405,0.3575 0,0.52917 0.0453,0.19193 0.21927,0.33723 0.26458,0.52916 0.10131,0.42918 0.0706,0.88764 0,1.32292 -0.0447,0.27529 -0.26458,0.79375 -0.26458,0.79375 0,0 0.20313,-0.15605 0.26458,-0.26458 0.17916,-0.31644 0.22016,-0.69743 0.26459,-1.05834 0.0431,-0.35013 0.10223,-0.72069 0,-1.05833 -0.0922,-0.30435 -0.52917,-0.79375 -0.52917,-0.79375 z"
             id="path68412"
             sodipodi:nodetypes="cssscsssc" />
        </g>
        <path
           style="fill:#007c78;fill-opacity:1;stroke:none;stroke-width:0.308695px;stroke-linecap:butt;stroke-linejoin:miter;stroke-opacity:1"
           d="m 214.0361,180.76557 c 0,0 -0.24003,0.18038 -0.30869,0.30869 -0.24758,0.46259 -0.32119,1.01894 -0.3087,1.54348 0.0105,0.42414 0.0996,0.86559 0.3087,1.23477 0.0716,0.12663 0.30869,0.3087 0.30869,0.3087 0,0 -0.25657,-0.6049 -0.30869,-0.92609 -0.0495,-0.30471 -0.0495,-0.62137 0,-0.92608 0.0522,-0.32119 -0.0709,-0.62565 0,-0.92609 0.0529,-0.22393 0.30869,-0.61738 0.30869,-0.61738 z"
           id="path71316"
           sodipodi:nodetypes="cssscsssc" />
      </g>
    </g>
  </g>
</svg>
